<svg width="91" height="29" viewBox="0 0 91 29" fill="none" xmlns="http://www.w3.org/2000/svg">
<g filter="url(#filter0_ddiii_3490_783)">
<g clip-path="url(#clip0_3490_783)">
<rect y="0.54834" width="24.9035" height="24.9035" rx="6.22587" fill="black"/>
<rect width="48" height="48" transform="translate(0 0.54834)" fill="url(#paint0_linear_3490_783)"/>
<g filter="url(#filter1_d_3490_783)">
<path fill-rule="evenodd" clip-rule="evenodd" d="M12.45 4.78564C10.3275 4.78564 8.39299 5.59064 6.93514 6.91198C6.73083 7.08947 6.53917 7.28113 6.36169 7.48543C5.04035 8.94328 4.23535 10.8778 4.23535 13.0003C4.23535 17.5372 7.91319 21.215 12.45 21.215C16.9869 21.215 20.6647 17.5372 20.6647 13.0003C20.6647 8.46349 16.9869 4.78564 12.45 4.78564ZM12.45 19.9828C16.3064 19.9828 19.4325 16.8567 19.4325 13.0003C19.4325 9.38357 16.6827 6.40907 13.1597 6.05347C15.1073 6.97448 16.4547 8.95725 16.4547 11.2547C16.4547 12.7504 15.8837 14.1126 14.9478 15.1354C14.8365 15.2655 14.7152 15.3868 14.5851 15.4981C13.5623 16.434 12.2001 17.005 10.7044 17.005C8.40696 17.005 6.42419 15.6576 5.50317 13.71C5.85877 17.233 8.83328 19.9828 12.45 19.9828ZM14.0237 14.3199C13.9424 14.4079 13.8576 14.4927 13.7696 14.574C13.4127 14.8736 12.9525 15.054 12.45 15.054C11.3158 15.054 10.3964 14.1345 10.3964 13.0003C10.3964 11.8661 11.3158 10.9467 12.45 10.9467C13.5843 10.9467 14.5037 11.8661 14.5037 13.0003C14.5037 13.5028 14.3233 13.963 14.0237 14.3199ZM15.2225 11.2359C14.6391 10.3211 13.6154 9.71446 12.45 9.71446C10.6353 9.71446 9.16417 11.1856 9.16417 13.0003C9.16417 14.1657 9.77083 15.1894 10.6856 15.7728C8.19897 15.7626 6.18634 13.7437 6.18634 11.2547C6.18634 10.1263 6.59998 9.09459 7.2839 8.30281C7.43264 8.13933 7.58903 7.98293 7.75252 7.83419C8.5443 7.15027 9.57606 6.73663 10.7044 6.73663C13.1934 6.73663 15.2123 8.74926 15.2225 11.2359Z" fill="url(#paint1_linear_3490_783)"/>
</g>
</g>
<rect x="0.518823" y="1.06716" width="23.8658" height="23.8658" rx="5.70705" stroke="url(#paint2_linear_3490_783)" stroke-width="1.03765"/>
</g>
<path d="M32.1641 19.5V17.7954L38.9427 8.28415H32.1508V5.91628H42.5509V7.62088L35.7656 17.1321H42.5641V19.5H32.1641ZM49.3576 19.699C48.3097 19.699 47.4076 19.4867 46.6515 19.0622C45.8998 18.6333 45.3206 18.0275 44.9138 17.2449C44.5069 16.4578 44.3035 15.527 44.3035 14.4525C44.3035 13.4046 44.5069 12.4848 44.9138 11.6933C45.3206 10.9018 45.8932 10.285 46.6316 9.84282C47.3745 9.40065 48.2456 9.17956 49.2449 9.17956C49.917 9.17956 50.5427 9.28789 51.1219 9.50456C51.7056 9.7168 52.2141 10.0374 52.6475 10.4663C53.0852 10.8952 53.4257 11.4347 53.6689 12.0847C53.9121 12.7302 54.0337 13.4864 54.0337 14.353V15.1291H45.4311V13.378H51.374C51.374 12.9712 51.2855 12.6109 51.1087 12.2969C50.9318 11.983 50.6864 11.7376 50.3724 11.5607C50.0629 11.3794 49.7025 11.2887 49.2913 11.2887C48.8624 11.2887 48.4821 11.3882 48.1505 11.5872C47.8233 11.7818 47.5668 12.0449 47.3811 12.3765C47.1954 12.7037 47.1003 13.0685 47.0959 13.4709V15.1357C47.0959 15.6398 47.1888 16.0753 47.3745 16.4423C47.5646 16.8093 47.8321 17.0923 48.177 17.2913C48.5219 17.4903 48.9309 17.5898 49.4041 17.5898C49.718 17.5898 50.0054 17.5456 50.2663 17.4571C50.5272 17.3687 50.7505 17.236 50.9362 17.0592C51.1219 16.8823 51.2634 16.6656 51.3607 16.4092L53.974 16.5816C53.8413 17.2095 53.5694 17.7578 53.1582 18.2265C52.7514 18.6908 52.2252 19.0534 51.5796 19.3143C50.9384 19.5707 50.1978 19.699 49.3576 19.699ZM58.7031 13.6102V19.5H55.8776V9.31221H58.5704V11.1097H58.6898C58.9153 10.5171 59.2934 10.0484 59.824 9.70354C60.3546 9.35422 60.998 9.17956 61.7541 9.17956C62.4616 9.17956 63.0784 9.33432 63.6046 9.64384C64.1308 9.95337 64.5398 10.3955 64.8317 10.9704C65.1235 11.5408 65.2694 12.2217 65.2694 13.0132V19.5H62.4439V13.5173C62.4483 12.8939 62.2892 12.4075 61.9664 12.0581C61.6436 11.7044 61.1992 11.5275 60.6332 11.5275C60.2529 11.5275 59.9169 11.6093 59.625 11.7729C59.3376 11.9365 59.1121 12.1753 58.9485 12.4893C58.7893 12.7988 58.7075 13.1724 58.7031 13.6102ZM67.4964 19.5V9.31221H70.3219V19.5H67.4964ZM68.9157 7.99894C68.4957 7.99894 68.1353 7.85965 67.8346 7.58108C67.5384 7.29809 67.3902 6.95982 67.3902 6.56628C67.3902 6.17717 67.5384 5.84332 67.8346 5.56475C68.1353 5.28175 68.4957 5.14026 68.9157 5.14026C69.3358 5.14026 69.694 5.28175 69.9902 5.56475C70.2909 5.84332 70.4413 6.17717 70.4413 6.56628C70.4413 6.95982 70.2909 7.29809 69.9902 7.58108C69.694 7.85965 69.3358 7.99894 68.9157 7.99894ZM78.0639 9.31221V11.4347H71.7761V9.31221H78.0639ZM73.2154 19.5V8.57598C73.2154 7.83754 73.3591 7.22513 73.6465 6.73873C73.9383 6.25234 74.3363 5.88754 74.8404 5.64434C75.3445 5.40114 75.9171 5.27954 76.5582 5.27954C76.9916 5.27954 77.3873 5.31271 77.7455 5.37903C78.1081 5.44536 78.3778 5.50505 78.5547 5.55812L78.0506 7.68057C77.9401 7.6452 77.803 7.61203 77.6394 7.58108C77.4802 7.55013 77.3166 7.53465 77.1486 7.53465C76.7329 7.53465 76.4433 7.63193 76.2797 7.82649C76.1161 8.01663 76.0343 8.28415 76.0343 8.62904V19.5H73.2154ZM81.5344 23.3204C81.1762 23.3204 80.8402 23.2917 80.5262 23.2342C80.2167 23.1811 79.9603 23.1126 79.7569 23.0286L80.3936 20.9194C80.7252 21.0211 81.0237 21.0764 81.289 21.0852C81.5587 21.0941 81.7909 21.0321 81.9854 20.8995C82.1844 20.7668 82.3458 20.5413 82.4696 20.223L82.6354 19.7918L78.9808 9.31221H81.9523L84.0615 16.7939H84.1676L86.2967 9.31221H89.288L85.3283 20.601C85.1382 21.1493 84.8795 21.6269 84.5523 22.0337C84.2295 22.4449 83.8205 22.7611 83.3252 22.9822C82.83 23.2077 82.2331 23.3204 81.5344 23.3204Z" fill="black"/>
<defs>
<filter id="filter0_ddiii_3490_783" x="-1.55647" y="-1.00813" width="28.0163" height="29.5727" filterUnits="userSpaceOnUse" color-interpolation-filters="sRGB">
<feFlood flood-opacity="0" result="BackgroundImageFix"/>
<feColorMatrix in="SourceAlpha" type="matrix" values="0 0 0 0 0 0 0 0 0 0 0 0 0 0 0 0 0 0 127 0" result="hardAlpha"/>
<feOffset dy="0.518823"/>
<feGaussianBlur stdDeviation="0.259411"/>
<feComposite in2="hardAlpha" operator="out"/>
<feColorMatrix type="matrix" values="0 0 0 0 0.162923 0 0 0 0 0.162923 0 0 0 0 0.162923 0 0 0 0.08 0"/>
<feBlend mode="normal" in2="BackgroundImageFix" result="effect1_dropShadow_3490_783"/>
<feColorMatrix in="SourceAlpha" type="matrix" values="0 0 0 0 0 0 0 0 0 0 0 0 0 0 0 0 0 0 127 0" result="hardAlpha"/>
<feMorphology radius="0.518823" operator="erode" in="SourceAlpha" result="effect2_dropShadow_3490_783"/>
<feOffset dy="1.55647"/>
<feGaussianBlur stdDeviation="1.03765"/>
<feComposite in2="hardAlpha" operator="out"/>
<feColorMatrix type="matrix" values="0 0 0 0 0.164706 0 0 0 0 0.164706 0 0 0 0 0.164706 0 0 0 0.14 0"/>
<feBlend mode="normal" in2="effect1_dropShadow_3490_783" result="effect2_dropShadow_3490_783"/>
<feBlend mode="normal" in="SourceGraphic" in2="effect2_dropShadow_3490_783" result="shape"/>
<feColorMatrix in="SourceAlpha" type="matrix" values="0 0 0 0 0 0 0 0 0 0 0 0 0 0 0 0 0 0 127 0" result="hardAlpha"/>
<feOffset dy="-1.55647"/>
<feGaussianBlur stdDeviation="0.778234"/>
<feComposite in2="hardAlpha" operator="arithmetic" k2="-1" k3="1"/>
<feColorMatrix type="matrix" values="0 0 0 0 0 0 0 0 0 0 0 0 0 0 0 0 0 0 0.1 0"/>
<feBlend mode="normal" in2="shape" result="effect3_innerShadow_3490_783"/>
<feColorMatrix in="SourceAlpha" type="matrix" values="0 0 0 0 0 0 0 0 0 0 0 0 0 0 0 0 0 0 127 0" result="hardAlpha"/>
<feOffset dy="1.55647"/>
<feGaussianBlur stdDeviation="0.778234"/>
<feComposite in2="hardAlpha" operator="arithmetic" k2="-1" k3="1"/>
<feColorMatrix type="matrix" values="0 0 0 0 1 0 0 0 0 1 0 0 0 0 1 0 0 0 0.1 0"/>
<feBlend mode="normal" in2="effect3_innerShadow_3490_783" result="effect4_innerShadow_3490_783"/>
<feColorMatrix in="SourceAlpha" type="matrix" values="0 0 0 0 0 0 0 0 0 0 0 0 0 0 0 0 0 0 127 0" result="hardAlpha"/>
<feMorphology radius="0.518823" operator="erode" in="SourceAlpha" result="effect5_innerShadow_3490_783"/>
<feOffset/>
<feComposite in2="hardAlpha" operator="arithmetic" k2="-1" k3="1"/>
<feColorMatrix type="matrix" values="0 0 0 0 0.0627451 0 0 0 0 0.0941176 0 0 0 0 0.156863 0 0 0 0.24 0"/>
<feBlend mode="normal" in2="effect4_innerShadow_3490_783" result="effect5_innerShadow_3490_783"/>
</filter>
<filter id="filter1_d_3490_783" x="2.16006" y="2.62376" width="20.5817" height="23.8659" filterUnits="userSpaceOnUse" color-interpolation-filters="sRGB">
<feFlood flood-opacity="0" result="BackgroundImageFix"/>
<feColorMatrix in="SourceAlpha" type="matrix" values="0 0 0 0 0 0 0 0 0 0 0 0 0 0 0 0 0 0 127 0" result="hardAlpha"/>
<feMorphology radius="1.03765" operator="erode" in="SourceAlpha" result="effect1_dropShadow_3490_783"/>
<feOffset dy="1.55647"/>
<feGaussianBlur stdDeviation="1.55647"/>
<feComposite in2="hardAlpha" operator="out"/>
<feColorMatrix type="matrix" values="0 0 0 0 0.141176 0 0 0 0 0.141176 0 0 0 0 0.141176 0 0 0 0.1 0"/>
<feBlend mode="normal" in2="BackgroundImageFix" result="effect1_dropShadow_3490_783"/>
<feBlend mode="normal" in="SourceGraphic" in2="effect1_dropShadow_3490_783" result="shape"/>
</filter>
<linearGradient id="paint0_linear_3490_783" x1="24" y1="5.96047e-07" x2="26" y2="48" gradientUnits="userSpaceOnUse">
<stop stop-color="white" stop-opacity="0"/>
<stop offset="1" stop-color="white" stop-opacity="0.12"/>
</linearGradient>
<linearGradient id="paint1_linear_3490_783" x1="12.45" y1="4.78564" x2="12.45" y2="21.215" gradientUnits="userSpaceOnUse">
<stop stop-color="white" stop-opacity="0.8"/>
<stop offset="1" stop-color="white" stop-opacity="0.5"/>
</linearGradient>
<linearGradient id="paint2_linear_3490_783" x1="12.4517" y1="0.54834" x2="12.4517" y2="25.4518" gradientUnits="userSpaceOnUse">
<stop stop-color="white" stop-opacity="0.12"/>
<stop offset="1" stop-color="white" stop-opacity="0"/>
</linearGradient>
<clipPath id="clip0_3490_783">
<rect y="0.54834" width="24.9035" height="24.9035" rx="6.22587" fill="white"/>
</clipPath>
</defs>
</svg>
