<svg width="154" height="38" viewBox="0 0 154 38" fill="none" xmlns="http://www.w3.org/2000/svg">
<g clip-path="url(#clip0_123_45083)">
<path d="M25.2095 19.0251C26.4581 17.9795 27.2521 16.409 27.2521 14.653C27.2521 12.8971 26.4581 11.3266 25.2095 10.281C25.3526 10.2117 25.4903 10.1365 25.6215 10.055C26.4497 9.54008 27.4272 9.24268 28.4742 9.24268C31.4623 9.24268 33.8846 11.665 33.8846 14.653C33.8846 17.6411 31.4623 20.0634 28.4742 20.0634C27.4272 20.0634 26.4497 19.766 25.6215 19.2511C25.4903 19.1696 25.3526 19.0944 25.2095 19.0251Z" fill="url(#paint0_linear_123_45083)"/>
<path d="M23.7066 15.5047C24.2651 13.9749 24.1675 12.2178 23.2895 10.6971C22.4115 9.17644 20.9386 8.21335 19.3345 7.93214C19.4238 7.80061 19.5054 7.66662 19.5782 7.53044C20.038 6.67039 20.7359 5.92406 21.6426 5.40056C24.2304 3.90652 27.5394 4.79315 29.0334 7.3809C30.5274 9.96866 29.6408 13.2776 27.053 14.7716C26.1463 15.2951 25.151 15.5263 24.1763 15.4945C24.022 15.4894 23.8651 15.4932 23.7066 15.5047Z" fill="url(#paint1_linear_123_45083)"/>
<path d="M20.6444 13.2073C20.3632 11.6032 19.4001 10.1303 17.8794 9.25236C16.3587 8.37438 14.6016 8.27678 13.0718 8.83529C13.0834 8.67675 13.0871 8.51988 13.082 8.36556C13.0502 7.39083 13.2814 6.39555 13.8049 5.48881C15.299 2.90106 18.6079 2.01443 21.1957 3.50847C23.7834 5.00251 24.6701 8.31146 23.176 10.8992C22.6525 11.8059 21.9062 12.5038 21.0461 12.9636C20.91 13.0364 20.776 13.118 20.6444 13.2073Z" fill="url(#paint2_linear_123_45083)"/>
<path d="M16.8445 12.7489C15.7989 11.5003 14.2284 10.7063 12.4724 10.7063C10.7164 10.7063 9.14595 11.5003 8.10036 12.7489C8.0311 12.6058 7.95588 12.4681 7.87435 12.3369C7.35941 11.5087 7.06201 10.5312 7.06201 9.48414C7.06201 6.49605 9.48433 4.07373 12.4724 4.07373C15.4605 4.07373 17.8828 6.49605 17.8828 9.48414C17.8828 10.5312 17.5854 11.5087 17.0705 12.3369C16.9889 12.4681 16.9137 12.6058 16.8445 12.7489Z" fill="url(#paint3_linear_123_45083)"/>
<path d="M13.3236 14.2518C11.7938 13.6933 10.0367 13.7909 8.51601 14.6688C6.9953 15.5468 6.03221 17.0197 5.75101 18.6238C5.61948 18.5345 5.48548 18.4529 5.3493 18.3801C4.48925 17.9203 3.74292 17.2224 3.21942 16.3157C1.72537 13.7279 2.612 10.419 5.19976 8.92498C7.78752 7.43093 11.0964 8.31756 12.5905 10.9053C13.114 11.812 13.3452 12.8073 13.3133 13.782C13.3083 13.9363 13.312 14.0932 13.3236 14.2518Z" fill="url(#paint4_linear_123_45083)"/>
<path d="M11.0248 17.3135C9.42066 17.5947 7.94777 18.5578 7.06979 20.0785C6.19181 21.5992 6.09421 23.3563 6.65273 24.8861C6.49417 24.8745 6.33728 24.8708 6.18294 24.8758C5.20822 24.9077 4.21294 24.6765 3.30621 24.153C0.718447 22.6589 -0.168184 19.35 1.32586 16.7622C2.8199 14.1745 6.12885 13.2878 8.71661 14.7819C9.62334 15.3054 10.3212 16.0517 10.781 16.9117C10.8538 17.0479 10.9355 17.1819 11.0248 17.3135Z" fill="url(#paint5_linear_123_45083)"/>
<path d="M10.5652 21.1146C9.31665 22.1602 8.52262 23.7307 8.52262 25.4866C8.52262 27.2426 9.31665 28.8131 10.5652 29.8587C10.4222 29.9279 10.2844 30.0032 10.1533 30.0847C9.32509 30.5996 8.34755 30.897 7.30054 30.897C4.31246 30.897 1.89014 28.4747 1.89014 25.4866C1.89014 22.4985 4.31246 20.0762 7.30054 20.0762C8.34755 20.0762 9.32509 20.3736 10.1533 20.8886C10.2844 20.9701 10.4222 21.0453 10.5652 21.1146Z" fill="url(#paint6_linear_123_45083)"/>
<path d="M12.0678 24.6357C11.5092 26.1655 11.6068 27.9226 12.4848 29.4433C13.3628 30.9641 14.8357 31.9271 16.4398 32.2083C16.3505 32.3399 16.2689 32.4739 16.1961 32.6101C15.7363 33.4701 15.0384 34.2164 14.1317 34.7399C11.5439 36.234 8.23494 35.3473 6.7409 32.7596C5.24685 30.1718 6.13349 26.8629 8.72124 25.3688C9.62798 24.8453 10.6233 24.6141 11.598 24.646C11.7523 24.651 11.9092 24.6473 12.0678 24.6357Z" fill="url(#paint7_linear_123_45083)"/>
<path d="M15.1299 26.9341C15.4111 28.5382 16.3742 30.0111 17.8949 30.889C19.4156 31.767 21.1728 31.8646 22.7026 31.3061C22.691 31.4647 22.6873 31.6215 22.6923 31.7759C22.7242 32.7506 22.493 33.7459 21.9695 34.6526C20.4754 37.2404 17.1665 38.127 14.5787 36.6329C11.9909 35.1389 11.1043 31.83 12.5984 29.2422C13.1219 28.3355 13.8682 27.6376 14.7282 27.1778C14.8644 27.105 14.9984 27.0233 15.1299 26.9341Z" fill="url(#paint8_linear_123_45083)"/>
<path d="M18.9304 27.3936C19.976 28.6422 21.5465 29.4362 23.3025 29.4362C25.0585 29.4362 26.629 28.6422 27.6746 27.3936C27.7438 27.5367 27.819 27.6744 27.9006 27.8055C28.4155 28.6337 28.7129 29.6113 28.7129 30.6583C28.7129 33.6464 26.2906 36.0687 23.3025 36.0687C20.3144 36.0687 17.8921 33.6464 17.8921 30.6583C17.8921 29.6113 18.1895 28.6337 18.7044 27.8055C18.786 27.6744 18.8612 27.5367 18.9304 27.3936Z" fill="url(#paint9_linear_123_45083)"/>
<path d="M22.4517 25.8915C23.9815 26.45 25.7386 26.3524 27.2593 25.4745C28.78 24.5965 29.7431 23.1236 30.0243 21.5195C30.1558 21.6087 30.2898 21.6904 30.426 21.7632C31.2861 22.223 32.0324 22.9209 32.5559 23.8276C34.05 26.4154 33.1633 29.7243 30.5756 31.2184C27.9878 32.7124 24.6789 31.8258 23.1848 29.238C22.6613 28.3313 22.4301 27.336 22.4619 26.3613C22.467 26.207 22.4633 26.0501 22.4517 25.8915Z" fill="url(#paint10_linear_123_45083)"/>
<path d="M28.7077 20.0587C28.7066 20.0606 28.7055 20.0625 28.7044 20.0644C27.8265 21.5851 26.3536 22.5482 24.7495 22.8294C24.8387 22.961 24.9204 23.095 24.9932 23.2311C25.453 24.0912 26.1509 24.8375 27.0576 25.361C29.6454 26.8551 32.9543 25.9684 34.4484 23.3807C35.7292 21.1621 35.2603 18.4135 33.4698 16.7329C32.6832 18.6206 30.8579 19.9671 28.7077 20.0587Z" fill="url(#paint11_linear_123_45083)"/>
<path d="M47.861 9.84101V26H44.2798V9.84101H47.861ZM44.8475 26L44.913 22.8337H54.1935V26H44.8475ZM54.754 20.519C54.754 19.369 54.9942 18.3645 55.4746 17.5056C55.955 16.6321 56.6319 15.9552 57.5054 15.4748C58.3788 14.9944 59.3978 14.7542 60.5625 14.7542C61.7271 14.7542 62.7388 14.9944 63.5977 15.4748C64.4712 15.9552 65.1481 16.6321 65.6285 17.5056C66.1089 18.3645 66.3491 19.369 66.3491 20.519C66.3491 21.6691 66.1089 22.6736 65.6285 23.5325C65.1481 24.3914 64.4712 25.061 63.5977 25.5414C62.7388 26.0218 61.7271 26.262 60.5625 26.262C59.3978 26.262 58.3788 26.0218 57.5054 25.5414C56.6319 25.061 55.955 24.3914 55.4746 23.5325C54.9942 22.6736 54.754 21.6691 54.754 20.519ZM58.1386 20.4972C58.1386 21.0504 58.2405 21.5381 58.4443 21.9603C58.6481 22.3679 58.932 22.6881 59.2959 22.9211C59.6599 23.1394 60.0821 23.2486 60.5625 23.2486C61.0429 23.2486 61.465 23.1394 61.829 22.9211C62.1929 22.6881 62.4695 22.3679 62.6588 21.9603C62.8626 21.5381 62.9645 21.0504 62.9645 20.4972C62.9645 19.944 62.8626 19.4636 62.6588 19.056C62.4695 18.6484 62.1929 18.3354 61.829 18.117C61.465 17.8841 61.0429 17.7676 60.5625 17.7676C60.0821 17.7676 59.6599 17.8841 59.2959 18.117C58.932 18.3354 58.6481 18.6484 58.4443 19.056C58.2405 19.4636 58.1386 19.944 58.1386 20.4972ZM67.1085 20.3444C67.1085 19.2234 67.3341 18.2408 67.7854 17.3964C68.2367 16.5521 68.8554 15.897 69.6415 15.4311C70.4276 14.9507 71.3302 14.7105 72.3492 14.7105C73.2081 14.7105 73.9651 14.8852 74.6202 15.2346C75.2899 15.584 75.7411 16.0426 75.9741 16.6103L75.6465 16.8287L75.9086 15.0818H78.9438V25.3012C78.9438 26.5823 78.6963 27.6887 78.2014 28.6204C77.7064 29.5666 77.0004 30.2945 76.0832 30.804C75.1807 31.3135 74.1034 31.5683 72.8514 31.5683C71.8033 31.5683 70.8571 31.3572 70.0127 30.935C69.1829 30.5274 68.506 29.9451 67.9819 29.1881C67.4724 28.4311 67.1667 27.5577 67.0648 26.5677H70.4713C70.5004 27.1937 70.7479 27.6741 71.2137 28.009C71.6941 28.3438 72.3055 28.5112 73.048 28.5112C73.8778 28.5112 74.5183 28.2783 74.9696 27.8124C75.4209 27.3611 75.6465 26.757 75.6465 26V23.6853L75.9522 23.9692C75.7193 24.537 75.268 24.9955 74.5984 25.3449C73.9287 25.6943 73.1572 25.869 72.2837 25.869C71.2792 25.869 70.3839 25.6361 69.5978 25.1702C68.8263 24.7044 68.2148 24.0566 67.7635 23.2268C67.3268 22.397 67.1085 21.4362 67.1085 20.3444ZM70.5149 20.257C70.5149 20.7811 70.6241 21.2469 70.8425 21.6545C71.0609 22.0622 71.352 22.3824 71.716 22.6153C72.0799 22.8337 72.4802 22.9429 72.917 22.9429C73.441 22.9429 73.8996 22.8337 74.2927 22.6153C74.7003 22.3824 75.0133 22.0622 75.2316 21.6545C75.4645 21.2469 75.581 20.7811 75.581 20.257C75.581 19.7184 75.4645 19.2598 75.2316 18.8813C74.9987 18.4883 74.6784 18.1825 74.2708 17.9642C73.8778 17.7458 73.4192 17.6366 72.8951 17.6366C72.4584 17.6366 72.0581 17.7458 71.6941 17.9642C71.3302 18.1825 71.039 18.4883 70.8207 18.8813C70.6168 19.2744 70.5149 19.7329 70.5149 20.257ZM80.1423 20.519C80.1423 19.369 80.3825 18.3645 80.8629 17.5056C81.3433 16.6321 82.0202 15.9552 82.8937 15.4748C83.7671 14.9944 84.7862 14.7542 85.9508 14.7542C87.1154 14.7542 88.1271 14.9944 88.9861 15.4748C89.8595 15.9552 90.5364 16.6321 91.0168 17.5056C91.4972 18.3645 91.7374 19.369 91.7374 20.519C91.7374 21.6691 91.4972 22.6736 91.0168 23.5325C90.5364 24.3914 89.8595 25.061 88.9861 25.5414C88.1271 26.0218 87.1154 26.262 85.9508 26.262C84.7862 26.262 83.7671 26.0218 82.8937 25.5414C82.0202 25.061 81.3433 24.3914 80.8629 23.5325C80.3825 22.6736 80.1423 21.6691 80.1423 20.519ZM83.5269 20.4972C83.5269 21.0504 83.6288 21.5381 83.8326 21.9603C84.0364 22.3679 84.3203 22.6881 84.6843 22.9211C85.0482 23.1394 85.4704 23.2486 85.9508 23.2486C86.4312 23.2486 86.8534 23.1394 87.2173 22.9211C87.5812 22.6881 87.8578 22.3679 88.0471 21.9603C88.2509 21.5381 88.3528 21.0504 88.3528 20.4972C88.3528 19.944 88.2509 19.4636 88.0471 19.056C87.8578 18.6484 87.5812 18.3354 87.2173 18.117C86.8534 17.8841 86.4312 17.7676 85.9508 17.7676C85.4704 17.7676 85.0482 17.8841 84.6843 18.117C84.3203 18.3354 84.0364 18.6484 83.8326 19.056C83.6288 19.4636 83.5269 19.944 83.5269 20.4972ZM93.1519 26V15.0818H96.5365V26H93.1519ZM94.8551 13.3785C94.3165 13.3785 93.8579 13.1965 93.4794 12.8326C93.1155 12.4541 92.9335 11.9955 92.9335 11.4569C92.9335 10.9183 93.1155 10.467 93.4794 10.103C93.8579 9.7391 94.3165 9.55713 94.8551 9.55713C95.3792 9.55713 95.8232 9.7391 96.1871 10.103C96.5656 10.467 96.7549 10.9183 96.7549 11.4569C96.7549 11.9955 96.5656 12.4541 96.1871 12.8326C95.8232 13.1965 95.3792 13.3785 94.8551 13.3785ZM98.7251 31.2408V15.0818H101.804L101.978 16.4138C102.284 15.9043 102.772 15.4967 103.441 15.1909C104.111 14.8852 104.832 14.7324 105.603 14.7324C106.622 14.7324 107.51 14.958 108.267 15.4093C109.024 15.8606 109.621 16.5084 110.058 17.3528C110.494 18.1825 110.727 19.187 110.757 20.3662C110.786 21.5162 110.596 22.5426 110.189 23.4451C109.781 24.3331 109.192 25.0319 108.42 25.5414C107.648 26.051 106.717 26.3057 105.625 26.3057C104.868 26.3057 104.162 26.1747 103.507 25.9127C102.852 25.6506 102.364 25.3158 102.044 24.9082V31.2408H98.7251ZM102.109 20.5409C102.109 21.0795 102.218 21.5599 102.437 21.9821C102.67 22.3897 102.983 22.71 103.376 22.9429C103.783 23.1613 104.249 23.2704 104.773 23.2704C105.312 23.2704 105.771 23.154 106.149 22.9211C106.542 22.6881 106.841 22.3679 107.044 21.9603C107.263 21.5526 107.372 21.0795 107.372 20.5409C107.372 20.0022 107.263 19.5291 107.044 19.1215C106.841 18.7139 106.542 18.3936 106.149 18.1607C105.771 17.9278 105.312 17.8113 104.773 17.8113C104.249 17.8113 103.783 17.9278 103.376 18.1607C102.983 18.3791 102.67 18.6921 102.437 19.0997C102.218 19.5073 102.109 19.9877 102.109 20.5409ZM111.333 22.5498H114.369C114.369 22.9283 114.492 23.2268 114.74 23.4451C115.002 23.6635 115.38 23.7727 115.875 23.7727C116.166 23.7727 116.407 23.7363 116.596 23.6635C116.8 23.5907 116.953 23.4888 117.054 23.3578C117.171 23.2122 117.229 23.0521 117.229 22.8774C117.229 22.6881 117.164 22.528 117.033 22.397C116.916 22.266 116.712 22.1641 116.421 22.0913L114.5 21.589C113.422 21.2979 112.658 20.8684 112.207 20.3007C111.755 19.7329 111.53 19.0851 111.53 18.3572C111.53 17.6293 111.712 16.9961 112.076 16.4575C112.454 15.9043 112.964 15.4821 113.604 15.1909C114.245 14.8852 114.965 14.7324 115.766 14.7324C116.974 14.7324 117.964 15.0672 118.736 15.7369C119.522 16.3919 119.937 17.2872 119.981 18.4227H116.945C116.96 18.0442 116.851 17.7458 116.618 17.5274C116.385 17.2945 116.079 17.1781 115.701 17.1781C115.366 17.1781 115.089 17.2654 114.871 17.4401C114.667 17.6002 114.565 17.8259 114.565 18.117C114.565 18.3936 114.667 18.5974 114.871 18.7285C115.075 18.8449 115.351 18.9468 115.701 19.0342L117.644 19.5146C118.547 19.7329 119.231 20.1042 119.697 20.6282C120.163 21.1523 120.395 21.822 120.395 22.6372C120.395 23.7581 119.981 24.6461 119.151 25.3012C118.321 25.9563 117.244 26.2839 115.919 26.2839C114.551 26.2839 113.451 25.9418 112.622 25.2576C111.806 24.5588 111.377 23.6562 111.333 22.5498ZM125.761 26.2839C124.48 26.2839 123.49 25.8835 122.791 25.0829C122.093 24.2822 121.743 23.234 121.743 21.9384V15.0818H125.106V20.7156C125.106 21.7346 125.288 22.4188 125.652 22.7682C126.016 23.1176 126.496 23.2923 127.093 23.2923C127.865 23.2923 128.396 23.0739 128.687 22.6372C128.978 22.2005 129.124 21.5745 129.124 20.7592V15.0818H132.487V26H129.321L129.102 24.7772C128.767 25.2284 128.294 25.5924 127.683 25.869C127.071 26.1456 126.431 26.2839 125.761 26.2839ZM138.038 26H134.653V15.0818H137.798L138.038 16.9597L137.667 16.5666C137.958 16.0134 138.395 15.5694 138.977 15.2346C139.574 14.8852 140.214 14.7105 140.899 14.7105C141.976 14.7105 142.82 14.9507 143.432 15.4311C144.058 15.9115 144.509 16.5448 144.785 17.3309H144.261C144.436 16.5448 144.858 15.9115 145.528 15.4311C146.198 14.9507 146.998 14.7105 147.93 14.7105C149.342 14.7105 150.383 15.089 151.053 15.846C151.722 16.603 152.057 17.6075 152.057 18.8595V26H148.782V19.6893C148.782 19.005 148.614 18.4955 148.279 18.1607C147.959 17.8259 147.53 17.6585 146.991 17.6585C146.671 17.6585 146.365 17.7313 146.074 17.8768C145.783 18.0078 145.542 18.248 145.353 18.5974C145.164 18.9323 145.069 19.4127 145.069 20.0386V26H141.75V19.6893C141.75 19.005 141.59 18.5028 141.27 18.1825C140.949 17.8477 140.52 17.6803 139.981 17.6803C139.661 17.6803 139.348 17.7531 139.042 17.8987C138.751 18.0297 138.511 18.2699 138.322 18.6193C138.133 18.9541 138.038 19.4272 138.038 20.0386V26Z" fill="#1B3D5B"/>
</g>
<defs>
<linearGradient id="paint0_linear_123_45083" x1="25.8869" y1="9.24268" x2="25.8869" y2="20.0634" gradientUnits="userSpaceOnUse">
<stop stop-color="#25136D"/>
<stop offset="1" stop-color="#3D9BA2"/>
</linearGradient>
<linearGradient id="paint1_linear_123_45083" x1="19.402" y1="6.69419" x2="24.8124" y2="16.0653" gradientUnits="userSpaceOnUse">
<stop stop-color="#25136D"/>
<stop offset="1" stop-color="#3D9BA2"/>
</linearGradient>
<linearGradient id="paint2_linear_123_45083" x1="12.5113" y1="7.72946" x2="21.8824" y2="13.1398" gradientUnits="userSpaceOnUse">
<stop stop-color="#25136D"/>
<stop offset="1" stop-color="#3D9BA2"/>
</linearGradient>
<linearGradient id="paint3_linear_123_45083" x1="7.06201" y1="12.0714" x2="17.8828" y2="12.0714" gradientUnits="userSpaceOnUse">
<stop stop-color="#25136D"/>
<stop offset="1" stop-color="#3D9BA2"/>
</linearGradient>
<linearGradient id="paint4_linear_123_45083" x1="4.51306" y1="18.5563" x2="13.8841" y2="13.1459" gradientUnits="userSpaceOnUse">
<stop stop-color="#25136D"/>
<stop offset="1" stop-color="#3D9BA2"/>
</linearGradient>
<linearGradient id="paint5_linear_123_45083" x1="5.54687" y1="25.4466" x2="10.9573" y2="16.0755" gradientUnits="userSpaceOnUse">
<stop stop-color="#25136D"/>
<stop offset="1" stop-color="#3D9BA2"/>
</linearGradient>
<linearGradient id="paint6_linear_123_45083" x1="9.88782" y1="30.897" x2="9.88782" y2="20.0762" gradientUnits="userSpaceOnUse">
<stop stop-color="#25136D"/>
<stop offset="1" stop-color="#3D9BA2"/>
</linearGradient>
<linearGradient id="paint7_linear_123_45083" x1="16.3723" y1="33.4463" x2="10.9619" y2="24.0752" gradientUnits="userSpaceOnUse">
<stop stop-color="#25136D"/>
<stop offset="1" stop-color="#3D9BA2"/>
</linearGradient>
<linearGradient id="paint8_linear_123_45083" x1="23.2631" y1="32.412" x2="13.892" y2="27.0015" gradientUnits="userSpaceOnUse">
<stop stop-color="#25136D"/>
<stop offset="1" stop-color="#3D9BA2"/>
</linearGradient>
<linearGradient id="paint9_linear_123_45083" x1="28.7129" y1="28.071" x2="17.8921" y2="28.071" gradientUnits="userSpaceOnUse">
<stop stop-color="#25136D"/>
<stop offset="1" stop-color="#3D9BA2"/>
</linearGradient>
<linearGradient id="paint10_linear_123_45083" x1="31.2623" y1="21.587" x2="21.8912" y2="26.9974" gradientUnits="userSpaceOnUse">
<stop stop-color="#25136D"/>
<stop offset="1" stop-color="#3D9BA2"/>
</linearGradient>
<linearGradient id="paint11_linear_123_45083" x1="30.2274" y1="14.6963" x2="24.817" y2="24.0674" gradientUnits="userSpaceOnUse">
<stop stop-color="#25136D"/>
<stop offset="1" stop-color="#3D9BA2"/>
</linearGradient>
<clipPath id="clip0_123_45083">
<rect width="153" height="38" fill="white" transform="translate(0.600098)"/>
</clipPath>
</defs>
</svg>
