<svg width="171" height="42" viewBox="0 0 171 42" fill="none" xmlns="http://www.w3.org/2000/svg">
<g clip-path="url(#clip0_123_45081)">
<path d="M52.6602 28.638H64.6122V25.038H56.9082V11.478H52.6602V28.638Z" fill="#340E0E"/>
<path d="M71.6926 26.2382C69.9886 26.2382 69.1006 24.7502 69.1006 22.5182C69.1006 20.2862 69.9886 18.7742 71.6926 18.7742C73.3966 18.7742 74.3086 20.2862 74.3086 22.5182C74.3086 24.7502 73.3966 26.2382 71.6926 26.2382ZM71.7166 29.0222C75.6766 29.0222 78.2686 26.2142 78.2686 22.5182C78.2686 18.8222 75.6766 16.0142 71.7166 16.0142C67.7806 16.0142 65.1406 18.8222 65.1406 22.5182C65.1406 26.2142 67.7806 29.0222 71.7166 29.0222Z" fill="#340E0E"/>
<path d="M85.1234 32.8862C86.9474 32.8862 88.5554 32.4782 89.6354 31.5182C90.6194 30.6302 91.2674 29.2862 91.2674 27.4382V16.3502H87.5234V17.6702H87.4754C86.7554 16.6382 85.6514 15.9902 84.0194 15.9902C80.9714 15.9902 78.8594 18.5342 78.8594 22.1342C78.8594 25.9022 81.4274 27.9662 84.1874 27.9662C85.6754 27.9662 86.6114 27.3662 87.3314 26.5502H87.4274V27.7742C87.4274 29.2622 86.7314 30.1262 85.0754 30.1262C83.7794 30.1262 83.1314 29.5742 82.9154 28.9262H79.1234C79.5074 31.4942 81.7394 32.8862 85.1234 32.8862ZM85.0994 25.0622C83.6354 25.0622 82.6754 23.8622 82.6754 22.0142C82.6754 20.1422 83.6354 18.9422 85.0994 18.9422C86.7314 18.9422 87.5954 20.3342 87.5954 21.9902C87.5954 23.7182 86.8034 25.0622 85.0994 25.0622Z" fill="#340E0E"/>
<path d="M98.9661 26.2382C97.2621 26.2382 96.3741 24.7502 96.3741 22.5182C96.3741 20.2862 97.2621 18.7742 98.9661 18.7742C100.67 18.7742 101.582 20.2862 101.582 22.5182C101.582 24.7502 100.67 26.2382 98.9661 26.2382ZM98.9901 29.0222C102.95 29.0222 105.542 26.2142 105.542 22.5182C105.542 18.8222 102.95 16.0142 98.9901 16.0142C95.0541 16.0142 92.4141 18.8222 92.4141 22.5182C92.4141 26.2142 95.0541 29.0222 98.9901 29.0222Z" fill="#340E0E"/>
<path d="M106.684 28.638H110.596V16.35H106.684V28.638ZM106.684 14.646H110.596V11.478H106.684V14.646Z" fill="#340E0E"/>
<path d="M112.294 32.6942H116.206V27.3662H116.254C117.022 28.3982 118.15 29.0222 119.734 29.0222C122.95 29.0222 125.086 26.4782 125.086 22.4942C125.086 18.7982 123.094 15.9902 119.83 15.9902C118.15 15.9902 116.95 16.7342 116.11 17.8382H116.038V16.3502H112.294V32.6942ZM118.726 25.9982C117.046 25.9982 116.086 24.6302 116.086 22.6382C116.086 20.6462 116.95 19.1342 118.654 19.1342C120.334 19.1342 121.126 20.5262 121.126 22.6382C121.126 24.7262 120.214 25.9982 118.726 25.9982Z" fill="#340E0E"/>
<path d="M131.455 29.0222C134.671 29.0222 137.047 27.6302 137.047 24.9422C137.047 21.7982 134.503 21.2462 132.343 20.8862C130.783 20.5982 129.391 20.4782 129.391 19.6142C129.391 18.8462 130.135 18.4862 131.095 18.4862C132.175 18.4862 132.919 18.8222 133.063 19.9262H136.663C136.471 17.5022 134.599 15.9902 131.119 15.9902C128.215 15.9902 125.815 17.3342 125.815 19.9262C125.815 22.8062 128.095 23.3822 130.231 23.7422C131.863 24.0302 133.351 24.1502 133.351 25.2542C133.351 26.0462 132.607 26.4782 131.431 26.4782C130.135 26.4782 129.319 25.8782 129.175 24.6542H125.479C125.599 27.3662 127.855 29.0222 131.455 29.0222Z" fill="#340E0E"/>
<path d="M142.361 28.9981C144.065 28.9981 145.145 28.3261 146.033 27.1261H146.105V28.6381H149.849V16.3501H145.937V23.2141C145.937 24.6781 145.121 25.6861 143.777 25.6861C142.529 25.6861 141.929 24.9421 141.929 23.5981V16.3501H138.041V24.4141C138.041 27.1501 139.529 28.9981 142.361 28.9981Z" fill="#340E0E"/>
<path d="M151.55 28.6382H155.462V21.7502C155.462 20.2862 156.182 19.2542 157.406 19.2542C158.582 19.2542 159.134 20.0222 159.134 21.3422V28.6382H163.046V21.7502C163.046 20.2862 163.742 19.2542 164.99 19.2542C166.166 19.2542 166.718 20.0222 166.718 21.3422V28.6382H170.63V20.6462C170.63 17.8862 169.238 15.9902 166.454 15.9902C164.87 15.9902 163.55 16.6622 162.59 18.1502H162.542C161.918 16.8302 160.694 15.9902 159.086 15.9902C157.31 15.9902 156.134 16.8302 155.366 18.1022H155.294V16.3502H151.55V28.6382Z" fill="#340E0E"/>
<path fill-rule="evenodd" clip-rule="evenodd" d="M21.4834 40.6382C32.5291 40.6382 41.4834 31.6839 41.4834 20.6382C41.4834 9.59249 32.5291 0.638184 21.4834 0.638184C10.4377 0.638184 1.4834 9.59249 1.4834 20.6382C1.4834 31.6839 10.4377 40.6382 21.4834 40.6382ZM27.7227 9.95502C28.0264 8.87623 26.9795 8.23831 26.0234 8.91948L12.6765 18.4278C11.6396 19.1665 11.8027 20.6382 12.9215 20.6382H16.4361V20.611H23.2859L17.7046 22.5803L15.2441 31.3214C14.9404 32.4002 15.9872 33.0381 16.9434 32.3569L30.2903 22.8487C31.3272 22.11 31.164 20.6382 30.0453 20.6382H24.7155L27.7227 9.95502Z" fill="#F15757"/>
</g>
<defs>
<clipPath id="clip0_123_45081">
<rect width="170" height="41" fill="white" transform="translate(0.799805 0.5)"/>
</clipPath>
</defs>
</svg>
