<svg width="169" height="42" viewBox="0 0 169 42" fill="none" xmlns="http://www.w3.org/2000/svg">
<g clip-path="url(#clip0_123_45080)">
<path d="M49.6772 29.4525H61.6292V25.8525H53.9252V12.2925H49.6772V29.4525Z" fill="#3C2B1F"/>
<path d="M68.7107 27.0526C67.0067 27.0526 66.1187 25.5646 66.1187 23.3326C66.1187 21.1006 67.0067 19.5886 68.7107 19.5886C70.4147 19.5886 71.3267 21.1006 71.3267 23.3326C71.3267 25.5646 70.4147 27.0526 68.7107 27.0526ZM68.7347 29.8366C72.6947 29.8366 75.2867 27.0286 75.2867 23.3326C75.2867 19.6366 72.6947 16.8286 68.7347 16.8286C64.7987 16.8286 62.1587 19.6366 62.1587 23.3326C62.1587 27.0286 64.7987 29.8366 68.7347 29.8366Z" fill="#3C2B1F"/>
<path d="M82.1414 33.7002C83.9654 33.7002 85.5734 33.2922 86.6534 32.3322C87.6374 31.4442 88.2854 30.1002 88.2854 28.2522V17.1642H84.5414V18.4842H84.4934C83.7734 17.4522 82.6694 16.8042 81.0374 16.8042C77.9894 16.8042 75.8774 19.3482 75.8774 22.9482C75.8774 26.7162 78.4454 28.7802 81.2054 28.7802C82.6934 28.7802 83.6294 28.1802 84.3494 27.3642H84.4454V28.5882C84.4454 30.0762 83.7494 30.9402 82.0934 30.9402C80.7974 30.9402 80.1494 30.3882 79.9334 29.7402H76.1414C76.5254 32.3082 78.7574 33.7002 82.1414 33.7002ZM82.1174 25.8762C80.6534 25.8762 79.6934 24.6762 79.6934 22.8282C79.6934 20.9562 80.6534 19.7562 82.1174 19.7562C83.7494 19.7562 84.6134 21.1482 84.6134 22.8042C84.6134 24.5322 83.8214 25.8762 82.1174 25.8762Z" fill="#3C2B1F"/>
<path d="M95.9832 27.0521C94.2792 27.0521 93.3912 25.5641 93.3912 23.3321C93.3912 21.1001 94.2792 19.5881 95.9832 19.5881C97.6872 19.5881 98.5992 21.1001 98.5992 23.3321C98.5992 25.5641 97.6872 27.0521 95.9832 27.0521ZM96.0071 29.8361C99.9671 29.8361 102.559 27.0281 102.559 23.3321C102.559 19.6361 99.9671 16.8281 96.0071 16.8281C92.0711 16.8281 89.4312 19.6361 89.4312 23.3321C89.4312 27.0281 92.0711 29.8361 96.0071 29.8361Z" fill="#3C2B1F"/>
<path d="M103.702 29.4525H107.614V17.1645H103.702V29.4525ZM103.702 15.4605H107.614V12.2925H103.702V15.4605Z" fill="#3C2B1F"/>
<path d="M109.311 33.5082H113.223V28.1802H113.271C114.039 29.2122 115.167 29.8362 116.751 29.8362C119.967 29.8362 122.103 27.2922 122.103 23.3082C122.103 19.6122 120.111 16.8042 116.847 16.8042C115.167 16.8042 113.967 17.5482 113.127 18.6522H113.055V17.1642H109.311V33.5082ZM115.743 26.8122C114.063 26.8122 113.103 25.4442 113.103 23.4522C113.103 21.4602 113.967 19.9482 115.671 19.9482C117.351 19.9482 118.143 21.3402 118.143 23.4522C118.143 25.5402 117.231 26.8122 115.743 26.8122Z" fill="#3C2B1F"/>
<path d="M128.472 29.8362C131.688 29.8362 134.064 28.4442 134.064 25.7562C134.064 22.6122 131.52 22.0602 129.36 21.7002C127.8 21.4122 126.408 21.2922 126.408 20.4282C126.408 19.6602 127.152 19.3002 128.112 19.3002C129.192 19.3002 129.936 19.6362 130.08 20.7402H133.68C133.488 18.3162 131.616 16.8042 128.136 16.8042C125.232 16.8042 122.832 18.1482 122.832 20.7402C122.832 23.6202 125.112 24.1962 127.248 24.5562C128.88 24.8442 130.368 24.9642 130.368 26.0682C130.368 26.8602 129.624 27.2922 128.448 27.2922C127.152 27.2922 126.336 26.6922 126.192 25.4682H122.496C122.616 28.1802 124.872 29.8362 128.472 29.8362Z" fill="#3C2B1F"/>
<path d="M139.378 29.8126C141.082 29.8126 142.162 29.1405 143.05 27.9405H143.122V29.4526H146.866V17.1646H142.954V24.0286C142.954 25.4926 142.138 26.5006 140.794 26.5006C139.546 26.5006 138.946 25.7565 138.946 24.4125V17.1646H135.058V25.2285C135.058 27.9646 136.546 29.8126 139.378 29.8126Z" fill="#3C2B1F"/>
<path d="M148.568 29.4522H152.48V22.5642C152.48 21.1002 153.2 20.0682 154.424 20.0682C155.6 20.0682 156.152 20.8362 156.152 22.1562V29.4522H160.064V22.5642C160.064 21.1002 160.76 20.0682 162.008 20.0682C163.184 20.0682 163.736 20.8362 163.736 22.1562V29.4522H167.648V21.4602C167.648 18.7002 166.256 16.8042 163.472 16.8042C161.888 16.8042 160.568 17.4762 159.608 18.9642H159.56C158.936 17.6442 157.712 16.8042 156.104 16.8042C154.328 16.8042 153.152 17.6442 152.384 18.9162H152.312V17.1642H148.568V29.4522Z" fill="#3C2B1F"/>
<path d="M25.8098 2.47671L21.8768 1.42285L18.5624 13.7924L15.5701 2.62509L11.637 3.67895L14.87 15.7444L6.81736 7.69183L3.93817 10.571L12.7709 19.4038L1.77114 16.4564L0.717285 20.3894L12.7359 23.6098C12.5983 23.0163 12.5255 22.3979 12.5255 21.7625C12.5255 17.2649 16.1715 13.6189 20.6691 13.6189C25.1667 13.6189 28.8127 17.2649 28.8127 21.7625C28.8127 22.3938 28.7408 23.0084 28.6049 23.5984L39.5276 26.5251L40.5814 22.5921L28.515 19.3589L39.5155 16.4113L38.4616 12.4783L26.3957 15.7113L34.4483 7.65877L31.5691 4.77958L22.8589 13.4898L25.8098 2.47671Z" fill="#F97316"/>
<path d="M28.5938 23.6445C28.2566 25.0701 27.5447 26.3508 26.5679 27.3769L34.4809 35.29L37.3601 32.4108L28.5938 23.6445Z" fill="#F97316"/>
<path d="M26.488 27.4595C25.4994 28.4692 24.2501 29.2227 22.8491 29.611L25.7285 40.357L29.6615 39.3031L26.488 27.4595Z" fill="#F97316"/>
<path d="M22.7022 29.6503C22.0522 29.8174 21.3709 29.9062 20.6688 29.9062C19.9166 29.9062 19.1882 29.8042 18.4967 29.6133L15.6147 40.3691L19.5477 41.4229L22.7022 29.6503Z" fill="#F97316"/>
<path d="M18.3577 29.5739C16.9781 29.1663 15.751 28.4032 14.7826 27.3906L6.8501 35.3231L9.72929 38.2023L18.3577 29.5739Z" fill="#F97316"/>
<path d="M14.7172 27.3205C13.7654 26.3015 13.0721 25.0379 12.7421 23.6343L1.78369 26.5706L2.83754 30.5036L14.7172 27.3205Z" fill="#F97316"/>
</g>
<defs>
<clipPath id="clip0_123_45080">
<rect width="168" height="41" fill="white" transform="translate(0.399902 0.5)"/>
</clipPath>
</defs>
</svg>
