<svg width="171" height="42" viewBox="0 0 171 42" fill="none" xmlns="http://www.w3.org/2000/svg">
<g clip-path="url(#clip0_123_45082)">
<path d="M51.4775 29.8231H63.4295V26.2231H55.7255V12.6631H51.4775V29.8231Z" fill="#2F234F"/>
<path d="M70.511 27.4232C68.807 27.4232 67.919 25.9352 67.919 23.7032C67.919 21.4712 68.807 19.9592 70.511 19.9592C72.215 19.9592 73.127 21.4712 73.127 23.7032C73.127 25.9352 72.215 27.4232 70.511 27.4232ZM70.535 30.2072C74.495 30.2072 77.087 27.3992 77.087 23.7032C77.087 20.0072 74.495 17.1992 70.535 17.1992C66.599 17.1992 63.959 20.0072 63.959 23.7032C63.959 27.3992 66.599 30.2072 70.535 30.2072Z" fill="#2F234F"/>
<path d="M83.9408 34.0713C85.7648 34.0713 87.3728 33.6633 88.4528 32.7033C89.4368 31.8153 90.0848 30.4713 90.0848 28.6233V17.5353H86.3408V18.8553H86.2928C85.5728 17.8233 84.4688 17.1753 82.8368 17.1753C79.7888 17.1753 77.6768 19.7193 77.6768 23.3193C77.6768 27.0873 80.2448 29.1513 83.0048 29.1513C84.4928 29.1513 85.4288 28.5513 86.1488 27.7353H86.2448V28.9593C86.2448 30.4473 85.5488 31.3113 83.8928 31.3113C82.5968 31.3113 81.9488 30.7593 81.7328 30.1113H77.9408C78.3248 32.6793 80.5568 34.0713 83.9408 34.0713ZM83.9168 26.2473C82.4528 26.2473 81.4928 25.0473 81.4928 23.1993C81.4928 21.3273 82.4528 20.1273 83.9168 20.1273C85.5488 20.1273 86.4128 21.5193 86.4128 23.1753C86.4128 24.9033 85.6208 26.2473 83.9168 26.2473Z" fill="#2F234F"/>
<path d="M97.7834 27.4232C96.0794 27.4232 95.1914 25.9352 95.1914 23.7032C95.1914 21.4712 96.0794 19.9592 97.7834 19.9592C99.4874 19.9592 100.399 21.4712 100.399 23.7032C100.399 25.9352 99.4874 27.4232 97.7834 27.4232ZM97.8074 30.2072C101.767 30.2072 104.359 27.3992 104.359 23.7032C104.359 20.0072 101.767 17.1992 97.8074 17.1992C93.8714 17.1992 91.2314 20.0072 91.2314 23.7032C91.2314 27.3992 93.8714 30.2072 97.8074 30.2072Z" fill="#2F234F"/>
<path d="M105.502 29.8231H109.414V17.5351H105.502V29.8231ZM105.502 15.8311H109.414V12.6631H105.502V15.8311Z" fill="#2F234F"/>
<path d="M111.111 33.8793H115.023V28.5513H115.071C115.839 29.5833 116.967 30.2073 118.551 30.2073C121.767 30.2073 123.903 27.6633 123.903 23.6793C123.903 19.9833 121.911 17.1753 118.647 17.1753C116.967 17.1753 115.767 17.9193 114.927 19.0233H114.855V17.5353H111.111V33.8793ZM117.543 27.1833C115.863 27.1833 114.903 25.8153 114.903 23.8233C114.903 21.8313 115.767 20.3193 117.471 20.3193C119.151 20.3193 119.943 21.7113 119.943 23.8233C119.943 25.9113 119.031 27.1833 117.543 27.1833Z" fill="#2F234F"/>
<path d="M130.272 30.2073C133.488 30.2073 135.864 28.8153 135.864 26.1273C135.864 22.9833 133.32 22.4313 131.16 22.0713C129.6 21.7833 128.208 21.6633 128.208 20.7993C128.208 20.0313 128.952 19.6713 129.912 19.6713C130.992 19.6713 131.736 20.0073 131.88 21.1113H135.48C135.288 18.6873 133.416 17.1753 129.936 17.1753C127.032 17.1753 124.632 18.5193 124.632 21.1113C124.632 23.9913 126.912 24.5673 129.048 24.9273C130.68 25.2153 132.168 25.3353 132.168 26.4393C132.168 27.2313 131.424 27.6633 130.248 27.6633C128.952 27.6633 128.136 27.0633 127.992 25.8393H124.296C124.416 28.5513 126.672 30.2073 130.272 30.2073Z" fill="#2F234F"/>
<path d="M141.178 30.1832C142.882 30.1832 143.962 29.5112 144.85 28.3112H144.922V29.8232H148.666V17.5352H144.754V24.3992C144.754 25.8632 143.938 26.8712 142.594 26.8712C141.346 26.8712 140.746 26.1272 140.746 24.7832V17.5352H136.858V25.5992C136.858 28.3352 138.346 30.1832 141.178 30.1832Z" fill="#2F234F"/>
<path d="M150.368 29.8233H154.28V22.9353C154.28 21.4713 155 20.4393 156.224 20.4393C157.4 20.4393 157.952 21.2073 157.952 22.5273V29.8233H161.864V22.9353C161.864 21.4713 162.56 20.4393 163.808 20.4393C164.984 20.4393 165.536 21.2073 165.536 22.5273V29.8233H169.448V21.8313C169.448 19.0713 168.056 17.1753 165.272 17.1753C163.688 17.1753 162.368 17.8473 161.408 19.3353H161.36C160.736 18.0153 159.512 17.1753 157.904 17.1753C156.128 17.1753 154.952 18.0153 154.184 19.2873H154.112V17.5353H150.368V29.8233Z" fill="#2F234F"/>
<path fill-rule="evenodd" clip-rule="evenodd" d="M20.3017 40.8232C31.3475 40.8232 40.3017 31.8689 40.3017 20.8232C40.3017 9.77754 31.3475 0.823242 20.3017 0.823242C9.25605 0.823242 0.301758 9.77754 0.301758 20.8232C0.301758 31.8689 9.25605 40.8232 20.3017 40.8232ZM23.3887 16.2758C25.0935 14.5709 25.0935 11.8068 23.3887 10.1019C21.6838 8.39702 18.9197 8.39702 17.2148 10.1019C15.51 11.8068 15.51 14.5709 17.2148 16.2758L20.3017 19.3627L23.3887 16.2758ZM24.8492 23.9102C26.5541 25.6151 29.3182 25.6151 31.0231 23.9102C32.7279 22.2053 32.7279 19.4412 31.0231 17.7363C29.3182 16.0315 26.5541 16.0315 24.8492 17.7363L21.7623 20.8233L24.8492 23.9102ZM23.3887 31.5446C25.0935 29.8397 25.0935 27.0756 23.3887 25.3707L20.3017 22.2838L17.2148 25.3707C15.51 27.0756 15.51 29.8397 17.2148 31.5446C18.9197 33.2495 21.6838 33.2495 23.3887 31.5446ZM9.58039 23.9102C7.87555 22.2053 7.87555 19.4412 9.58039 17.7363C11.2853 16.0315 14.0494 16.0315 15.7543 17.7363L18.8412 20.8233L15.7543 23.9102C14.0494 25.6151 11.2853 25.6151 9.58039 23.9102Z" fill="#7F57F1"/>
</g>
<defs>
<clipPath id="clip0_123_45082">
<rect width="170" height="41" fill="white" transform="translate(0.200195 0.5)"/>
</clipPath>
</defs>
</svg>
